<?xml version="1.0" encoding="UTF-8"?>
<svg version="1.1" xmlns="http://www.w3.org/2000/svg" width="64" height="64">
<path d="M0 0 C7.48874873 4.44601038 12.81690928 10.75881313 15.75 19.078125 C17.49212583 29.72232237 16.84899776 40.12067238 10.78515625 49.234375 C5.95667449 55.40849921 -0.38190239 59.19037832 -7.89453125 61.25 C-18.99430397 62.24851512 -28.62901785 61.59947202 -37.70703125 54.5 C-43.76476515 48.84230513 -47.48560493 41.79573908 -48.23046875 33.515625 C-48.47187868 22.78614726 -47.22004818 13.94259894 -39.59765625 5.78125 C-29.0100223 -3.73790713 -12.93902605 -6.24194221 0 0 Z " fill="#48B02C" transform="translate(47.89453125,2.75)"/>
<path d="M0 0 C4.96449772 2.19361527 7.99643991 5.65835978 10.125 10.625 C10.41375 11.40875 10.7025 12.1925 11 13 C11.66 13.99 12.32 14.98 13 16 C13.66923077 22.91538462 13.66923077 22.91538462 11.1875 26.9375 C6.29114045 31.55406758 -0.85638027 30.26000808 -7.19628906 30.29516602 C-8.64528156 30.30669431 -10.09423131 30.32716001 -11.54296875 30.35668945 C-13.64091732 30.39944136 -15.73760702 30.41554281 -17.8359375 30.42578125 C-19.08938965 30.44036377 -20.3428418 30.45494629 -21.63427734 30.4699707 C-25.58394401 29.91846132 -27.19906018 28.77927474 -30 26 C-31.60879162 22.78241676 -31.61201039 19.47914605 -31 16 C-28.625 13 -28.625 13 -26 11 C-25.34 11 -24.68 11 -24 11 C-23.731875 10.401875 -23.46375 9.80375 -23.1875 9.1875 C-21.90508114 6.82514947 -21.2070296 5.54492072 -19 4 C-16.97485937 3.74283929 -14.94805242 3.49021993 -12.9140625 3.31640625 C-10.83225069 3.12491657 -10.83225069 3.12491657 -8.9375 1.4375 C-5.95209355 -0.77747898 -3.61117235 -0.38012341 0 0 Z " fill="#4CB131" transform="translate(41,17)"/>
<path d="M0 0 C4.96449772 2.19361527 7.99643991 5.65835978 10.125 10.625 C10.41375 11.40875 10.7025 12.1925 11 13 C11.66 13.99 12.32 14.98 13 16 C13.66923077 22.91538462 13.66923077 22.91538462 11.1875 26.9375 C6.29114045 31.55406758 -0.85638027 30.26000808 -7.19628906 30.29516602 C-8.64528156 30.30669431 -10.09423131 30.32716001 -11.54296875 30.35668945 C-13.64091732 30.39944136 -15.73760702 30.41554281 -17.8359375 30.42578125 C-19.08938965 30.44036377 -20.3428418 30.45494629 -21.63427734 30.4699707 C-25.58394401 29.91846132 -27.19906018 28.77927474 -30 26 C-31.60879162 22.78241676 -31.61201039 19.47914605 -31 16 C-28.625 13 -28.625 13 -26 11 C-25.34 11 -24.68 11 -24 11 C-23.731875 10.401875 -23.46375 9.80375 -23.1875 9.1875 C-21.90508114 6.82514947 -21.2070296 5.54492072 -19 4 C-16.97485937 3.74283929 -14.94805242 3.49021993 -12.9140625 3.31640625 C-10.83225069 3.12491657 -10.83225069 3.12491657 -8.9375 1.4375 C-5.95209355 -0.77747898 -3.61117235 -0.38012341 0 0 Z M-10 6 C-11.9375 6.30859375 -11.9375 6.30859375 -14 6.4375 C-17.1879827 6.76976368 -17.1879827 6.76976368 -19.9375 8.375 C-21.18609823 10.13413918 -21.18609823 10.13413918 -22 13 C-24.5 14.625 -24.5 14.625 -27 16 C-28.30746709 17.09923541 -28.30746709 17.09923541 -28.3125 19.8125 C-28.27262574 23.01610663 -28.27262574 23.01610663 -26.40625 25.16601562 C-23.20549742 27.60555026 -21.18641051 27.51634458 -17.1875 27.53125 C-16.53676514 27.5350769 -15.88603027 27.53890381 -15.21557617 27.54284668 C-13.84389696 27.54556076 -12.47216556 27.53823453 -11.10058594 27.52148438 C-9.00598315 27.50006119 -6.91480916 27.52129637 -4.8203125 27.546875 C-3.48436746 27.54423163 -2.14842455 27.53910643 -0.8125 27.53125 C1.00314453 27.52448242 1.00314453 27.52448242 2.85546875 27.51757812 C6.57968852 26.90458543 7.77407869 25.99956469 10 23 C10.58345476 19.95746492 10.58345476 19.95746492 10 17 C9.02246356 15.97803008 8.0194119 14.98020375 7 14 C6.690625 12.845 6.38125 11.69 6.0625 10.5 C5.26932369 7.06380166 5.26932369 7.06380166 3.375 5.0625 C-1.2748928 2.9822848 -5.71297179 3.14198119 -10 6 Z " fill="#F1F8EF" transform="translate(41,17)"/>
</svg>
